# xmcd
#
# Track frame offsets:
#	150
#	18065
#	36970
#	53445
#	76777
#	109886
#	136396
#	155356
#	171426
#	193624
#	206392
#	227951
#	252493
#	278380
#	293988
#	309349
#
# Disc length: 4514 seconds
#
# Revision: 2
# Processed by: cddbd v1.5.2PL0 Copyright (c) Steve Scherf et al.
# Submitted via: audiograbber 1.83.01
#
DISCID=d111a010
DTITLE=Various Artist - CDC 23 - REFLECTIONS OF SILENCE - CD1
DYEAR=2002
DGENRE=Ambient
TTITLE0=Brian Eno and David Byrne - Regiment
TTITLE1=James Taylor Quartet - Indian Summer
TTITLE2=Penguin cefe orchestra  - Music For A Found Harmonium
TTITLE3=Ronny Jordan - So What
TTITLE4=Afro celt sound system - Whirl-Y-Reel 1
TTITLE5=Divine works - Ancient Person Of My Heart
TTITLE6=Mica Paris - Like Dreamers Do
TTITLE7=The Grid - On The Wing
TTITLE8=Douglas Spotted Eagle - Breathe
TTITLE9=Ennio Morricone - The Mission
TTITLE10=Apocalyptica - Nothing Else Matters
TTITLE11=Working Week - Largo
TTITLE12=Ernest Ranglin - Surfin
TTITLE13=Δημήτρης Παπαδημητρίου - Μη Φοβόσαι τη Φωτιό
TTITLE14=Καλλιόπη Βέτα - Βόλς
TTITLE15=Saint - Saens
EXTD=
EXTT0=
EXTT1=
EXTT2=
EXTT3=
EXTT4=
EXTT5=
EXTT6=
EXTT7=
EXTT8=
EXTT9=
EXTT10=
EXTT11=
EXTT12=
EXTT13=
EXTT14=
EXTT15=
PLAYORDER=
